<svg width="35" height="35" viewBox="0 0 35 35" fill="none" xmlns="http://www.w3.org/2000/svg">
<path d="M0 17.1602C0 7.68286 7.68286 0 17.1602 0C26.6374 0 34.3203 7.68286 34.3203 17.1602C34.3203 26.6374 26.6374 34.3203 17.1602 34.3203C7.68286 34.3203 0 26.6374 0 17.1602Z" fill="#D2E7FF"/>
<path d="M17.7258 9.02464L17.7001 9.0847L15.2118 14.8591H12.7665C12.1831 14.8591 11.6254 14.9792 11.1191 15.1937L12.6207 11.6072L12.655 11.5214L12.715 11.3842C12.7322 11.3327 12.7494 11.2812 12.7751 11.2383C13.8991 8.63854 15.1689 8.04651 17.7258 9.02464Z" stroke="#111927" stroke-width="1.28701" stroke-linecap="round" stroke-linejoin="round"/>
<path d="M22.3496 15.0307C21.9635 14.9106 21.5516 14.8591 21.1398 14.8591H15.2109L17.6992 9.08472L17.7249 9.02466C17.8536 9.06756 17.9737 9.12762 18.1024 9.1791L19.9986 9.97705C21.054 10.4146 21.7919 10.8694 22.238 11.4185C22.3238 11.5215 22.3925 11.6158 22.4525 11.7274C22.5297 11.8475 22.5898 11.9676 22.6241 12.0963C22.6584 12.1735 22.6842 12.2508 22.7013 12.3194C22.933 13.0401 22.7957 13.9239 22.3496 15.0307Z" stroke="#111927" stroke-width="1.28701" stroke-linecap="round" stroke-linejoin="round"/>
<path d="M25.3296 19.0464V20.7195C25.3296 20.8911 25.321 21.0627 25.3124 21.2343C25.1494 24.2288 23.4763 25.7389 20.3017 25.7389H13.6092C13.4033 25.7389 13.1973 25.7217 13 25.696C10.2715 25.5158 8.81293 24.0572 8.63274 21.3287C8.607 21.1314 8.58984 20.9254 8.58984 20.7195V19.0464C8.58984 17.3218 9.63661 15.8374 11.1295 15.1939C11.6444 14.9794 12.1935 14.8593 12.7769 14.8593H21.1511C21.5715 14.8593 21.9833 14.9194 22.3609 15.0309C24.0683 15.5543 25.3296 17.1502 25.3296 19.0464Z" stroke="#111927" stroke-width="1.28701" stroke-linecap="round" stroke-linejoin="round"/>
<path d="M12.6213 11.6072L11.1198 15.1937C9.62685 15.8372 8.58008 17.3216 8.58008 19.0462V16.5322C8.58008 14.0955 10.3133 12.062 12.6213 11.6072Z" stroke="#111927" stroke-width="1.28701" stroke-linecap="round" stroke-linejoin="round"/>
<path d="M25.3261 16.5318V19.0457C25.3261 17.1581 24.0734 15.5537 22.3574 15.0389C22.8036 13.9234 22.9323 13.0483 22.7178 12.319C22.7006 12.2417 22.6749 12.1645 22.6406 12.0959C24.2365 12.9196 25.3261 14.6098 25.3261 16.5318Z" stroke="#111927" stroke-width="1.28701" stroke-linecap="round" stroke-linejoin="round"/>
</svg>
