<svg width="20" height="20" viewBox="0 0 20 20" fill="none" xmlns="http://www.w3.org/2000/svg">
<path d="M4.91663 16.6668C6.24996 15.4168 7.99996 14.5835 9.99996 14.5835C11.9166 14.5835 13.75 15.3335 15.0833 16.6668" stroke="#111927" stroke-width="1.5" stroke-linecap="round" stroke-linejoin="round"/>
<path d="M11.75 7.83335C12.75 8.83335 12.75 10.4167 11.75 11.3333C10.75 12.25 9.16664 12.3333 8.24997 11.3333C7.33331 10.3333 7.24997 8.75001 8.24997 7.83335C9.24997 6.91668 10.75 6.83335 11.75 7.83335" stroke="#111927" stroke-width="1.5" stroke-linecap="round" stroke-linejoin="round"/>
<path d="M3.33333 14.1668C2.83333 13.1668 2.5 12.0002 2.5 10.8335C2.5 6.66683 5.83333 3.3335 10 3.3335C14.1667 3.3335 17.5 6.66683 17.5 10.8335C17.5 12.0002 17.1667 13.1668 16.6667 14.1668" stroke="#111927" stroke-width="1.5" stroke-linecap="round" stroke-linejoin="round"/>
</svg>
